<svg xmlns="http://www.w3.org/2000/svg" width="161.184" height="51.028" viewBox="0 0 161.184 51.028">
  <g id="HEF-LOGO" transform="translate(-336.262 -254.799)">
    <path id="Path_376" data-name="Path 376" d="M-52.46-17.981h3.279v6.409H-43.5v-6.409h3.268V-.995H-43.5V-8.443H-49.18V-.995H-52.46Zm24.122-.427a8.427,8.427,0,0,1,6.2,2.61A8.687,8.687,0,0,1-19.55-9.436a8.59,8.59,0,0,1-2.558,6.293A8.422,8.422,0,0,1-28.314-.568a8.42,8.42,0,0,1-6.351-2.644,8.779,8.779,0,0,1-2.529-6.282,8.815,8.815,0,0,1,1.178-4.48,8.719,8.719,0,0,1,3.239-3.239A8.7,8.7,0,0,1-28.337-18.408Zm-.035,3.164a5.323,5.323,0,0,0-3.961,1.64,5.713,5.713,0,0,0-1.605,4.169,5.435,5.435,0,0,0,2.021,4.457,5.537,5.537,0,0,0,3.6,1.282A5.258,5.258,0,0,0-24.4-5.36a5.653,5.653,0,0,0,1.617-4.1,5.676,5.676,0,0,0-1.628-4.105A5.308,5.308,0,0,0-28.372-15.244Zm13.51-2.737H-11.7L-7.772-6.134l3.984-11.847H-.67L2.194-.995H-.924L-2.749-11.722-6.363-.995H-9.215l-3.568-10.727L-14.642-.995h-3.152Zm21.282,0H9.584L13.51-6.134l3.984-11.847h3.118L23.475-.995H20.358L18.533-11.722,14.919-.995H12.067L8.5-11.722,6.639-.995H3.487Zm19.653,0h9.272v3.164H29.284v3.072h6.062v3.106H29.284V-4.17h6.062V-.995H26.073Zm21.189,2.309-2.39,2.113a3.389,3.389,0,0,0-2.563-1.755,1.557,1.557,0,0,0-1.039.341.992.992,0,0,0-.4.768,1.316,1.316,0,0,0,.289.808,21.937,21.937,0,0,0,2.367,2.182q1.848,1.547,2.24,1.951a6.764,6.764,0,0,1,1.391,1.9,4.75,4.75,0,0,1,.41,1.98A4.543,4.543,0,0,1,46.12-1.93,5.26,5.26,0,0,1,42.355-.568,5.6,5.6,0,0,1,39.2-1.457a7.022,7.022,0,0,1-2.3-2.794l2.714-1.64q1.224,2.252,2.818,2.252a2.072,2.072,0,0,0,1.4-.485,1.443,1.443,0,0,0,.566-1.12A1.935,1.935,0,0,0,43.96-6.4a12.33,12.33,0,0,0-1.882-1.767,19,19,0,0,1-3.58-3.493,4.442,4.442,0,0,1-.808-2.454,4.015,4.015,0,0,1,1.345-3.031,4.663,4.663,0,0,1,3.32-1.264,5.233,5.233,0,0,1,2.419.589A8.814,8.814,0,0,1,47.263-15.672Z" transform="translate(449.883 292.232)" fill="#0a0708"/>
    <path id="Path_377" data-name="Path 377" d="M-118.414-18.218h4.125v1.408h-2.7v1.367h2.7v1.382h-2.7v1.988h2.7v1.413h-4.125Zm9.427,1.027-1.063.94a1.508,1.508,0,0,0-1.14-.781.693.693,0,0,0-.462.152.441.441,0,0,0-.18.342.586.586,0,0,0,.128.36,9.757,9.757,0,0,0,1.053.971q.822.688,1,.868a3.009,3.009,0,0,1,.619.845,2.113,2.113,0,0,1,.182.881,2.021,2.021,0,0,1-.642,1.536,2.34,2.34,0,0,1-1.675.606,2.489,2.489,0,0,1-1.405-.4A3.124,3.124,0,0,1-113.6-12.11l1.207-.729q.545,1,1.253,1a.922.922,0,0,0,.622-.216.642.642,0,0,0,.252-.5.861.861,0,0,0-.19-.514,5.486,5.486,0,0,0-.837-.786,8.454,8.454,0,0,1-1.593-1.554,1.977,1.977,0,0,1-.36-1.092,1.786,1.786,0,0,1,.6-1.349,2.075,2.075,0,0,1,1.477-.563,2.328,2.328,0,0,1,1.076.262A3.921,3.921,0,0,1-108.987-17.191Zm.765-1.027h4.177V-16.8h-1.377v6.139h-1.459V-16.8h-1.341Zm7.464,0H-99.3l2.908,7.557h-1.495l-.591-1.557h-3.082l-.616,1.557h-1.495Zm.74,2-1.007,2.594h2.009Zm4-2h4.177V-16.8h-1.377v6.139H-94.68V-16.8h-1.341Zm5.168,0h4.125v1.408h-2.7v1.367h2.7v1.382h-2.7v1.988h2.7v1.413h-4.125Zm9.427,1.027-1.063.94a1.508,1.508,0,0,0-1.14-.781.693.693,0,0,0-.462.152.441.441,0,0,0-.18.342.586.586,0,0,0,.128.36,9.76,9.76,0,0,0,1.053.971q.822.688,1,.868a3.009,3.009,0,0,1,.619.845,2.113,2.113,0,0,1,.182.881,2.021,2.021,0,0,1-.642,1.536,2.34,2.34,0,0,1-1.675.606,2.489,2.489,0,0,1-1.405-.4,3.124,3.124,0,0,1-1.025-1.243l1.207-.729q.545,1,1.253,1a.922.922,0,0,0,.622-.216.642.642,0,0,0,.252-.5.861.861,0,0,0-.19-.514,5.485,5.485,0,0,0-.837-.786,8.453,8.453,0,0,1-1.593-1.554,1.976,1.976,0,0,1-.36-1.092,1.786,1.786,0,0,1,.6-1.349,2.075,2.075,0,0,1,1.477-.563,2.328,2.328,0,0,1,1.076.262A3.921,3.921,0,0,1-81.426-17.191Zm9.191,3.56.858.981-.39.354-.385.349,1.212,1.284h-1.742l-.5-.514a4.408,4.408,0,0,1-2.214.7A1.959,1.959,0,0,1-76.8-10.98a1.718,1.718,0,0,1-.537-1.3,2.265,2.265,0,0,1,.3-1.135A3.954,3.954,0,0,1-76-14.524a3.068,3.068,0,0,1-.724-1.736,1.667,1.667,0,0,1,.483-1.1,1.724,1.724,0,0,1,1.361-.545,1.721,1.721,0,0,1,1.364.539,1.652,1.652,0,0,1,.475,1.089,1.688,1.688,0,0,1-.218.827,6.217,6.217,0,0,1-1,1.171q.92,1.084,1.187,1.351Q-72.908-13.055-72.235-13.631ZM-74.968-15.3q.57-.488.57-.863a.422.422,0,0,0-.128-.319.469.469,0,0,0-.339-.123.447.447,0,0,0-.331.139.448.448,0,0,0-.136.324A1.448,1.448,0,0,0-74.968-15.3Zm.853,3.123a15.733,15.733,0,0,1-1.115-1.295q-.765.632-.765,1.1a.539.539,0,0,0,.208.406.763.763,0,0,0,.527.185A2.428,2.428,0,0,0-74.116-12.172Zm7.264-6.047h3.75v1.4h-2.327v1.372H-63.1v1.382h-2.327v3.4h-1.423Zm7.331,0h1.459l2.908,7.557h-1.495l-.591-1.557h-3.082l-.616,1.557h-1.495Zm.74,2-1.007,2.594h2.009Zm11.687-.673-1.007.961a3.12,3.12,0,0,0-2.312-1.084,2.487,2.487,0,0,0-1.826.74,2.474,2.474,0,0,0-.742,1.824,2.692,2.692,0,0,0,.329,1.341,2.355,2.355,0,0,0,.93.92,2.7,2.7,0,0,0,1.336.334,2.757,2.757,0,0,0,1.146-.234,4.1,4.1,0,0,0,1.14-.85l.976,1.017a5.354,5.354,0,0,1-1.582,1.133,4.32,4.32,0,0,1-1.7.316,3.915,3.915,0,0,1-2.885-1.117,3.868,3.868,0,0,1-1.122-2.864,3.92,3.92,0,0,1,.511-2.009,3.8,3.8,0,0,1,1.464-1.413,4.129,4.129,0,0,1,2.052-.534,4.285,4.285,0,0,1,1.8.4A4.306,4.306,0,0,1-47.094-16.888Zm1.156-1.331h1.428v7.557h-1.428Zm3.046,0h1.438v6.185h2.1v1.372h-3.534Zm4.526,0h1.428v7.557h-1.428Zm2.3,0h4.177V-16.8h-1.377v6.139h-1.459V-16.8h-1.341Zm5.06,0h1.428v7.557H-31Zm3.052,0h4.125v1.408h-2.7v1.367h2.7v1.382h-2.7v1.988h2.7v1.413h-4.125Zm9.427,1.027-1.063.94a1.508,1.508,0,0,0-1.14-.781.693.693,0,0,0-.462.152.441.441,0,0,0-.18.342.586.586,0,0,0,.128.36,9.759,9.759,0,0,0,1.053.971q.822.688,1,.868a3.009,3.009,0,0,1,.619.845,2.113,2.113,0,0,1,.182.881,2.021,2.021,0,0,1-.642,1.536,2.34,2.34,0,0,1-1.675.606,2.489,2.489,0,0,1-1.405-.4,3.124,3.124,0,0,1-1.025-1.243l1.207-.729q.545,1,1.253,1a.922.922,0,0,0,.622-.216.642.642,0,0,0,.252-.5.861.861,0,0,0-.19-.514,5.486,5.486,0,0,0-.837-.786,8.455,8.455,0,0,1-1.593-1.554,1.976,1.976,0,0,1-.36-1.092,1.786,1.786,0,0,1,.6-1.349,2.075,2.075,0,0,1,1.477-.563,2.328,2.328,0,0,1,1.076.262A3.921,3.921,0,0,1-18.525-17.191Z" transform="translate(515.838 316.299)" fill="#0a0708"/>
    <g id="HEF-Brandmark-2" transform="translate(336.262 254.799)">
      <g id="Path_997" transform="translate(0 28.927)">
        <path id="Path_1015" data-name="Path 1015" d="M4391-3332.733h-17.2v-8.8h1.05v7.748h15.1V-3349.2l8.774-5.638.088,21.577h-1.05v-19.677l-6.762,4.326Z" transform="translate(-4373.8 3354.835)" fill="#c50"/>
      </g>
      <g id="Path_998" transform="translate(23.876 14.867)">
        <path id="Path_1016" data-name="Path 1016" d="M4488.55-3386.164H4487.5V-3421.8l8.715,7.539v28.1h-1.05v-27.614l-6.615-5.733Z" transform="translate(-4487.5 3421.8)" fill="#c50"/>
      </g>
      <g id="Path_999" transform="translate(28.244 8.631)">
        <path id="Path_1017" data-name="Path 1017" d="M4533.059-3409.1h-17.324v-34.964l-7.434-6.657.693-.777,7.791,6.972v34.376h15.224V-3426.7h1.05Z" transform="translate(-4508.301 3451.501)" fill="#c50"/>
      </g>
      <g id="Path_1000" transform="translate(20.264)">
        <path id="Path_1018" data-name="Path 1018" d="M4471.351-3460.408h-1.05v-24.863l8.84-7.329v19.382h-1.05v-17.135l-6.741,5.564Z" transform="translate(-4470.301 3492.6)" fill="#c50"/>
      </g>
      <g id="Path_1001" transform="translate(0.504 39.983)">
        <path id="Path_1019" data-name="Path 1019" d="M4376.851-3298.484h-.651l.021-1.47c10.563.084,15.791-2.205,15.833-2.247l.609,1.344C4392.453-3300.751,4387.309-3298.484,4376.851-3298.484Z" transform="translate(-4376.2 3302.201)" fill="#c50"/>
      </g>
      <g id="Path_1006" transform="translate(36.056 34.782)">
        <path id="Path_1020" data-name="Path 1020" d="M4545.837-3324.264l-.336-1.428c10.563-2.478,16.463-.588,16.695-.525l-.462,1.386C4561.691-3324.831,4555.937-3326.637,4545.837-3324.264Z" transform="translate(-4545.5 3326.966)" fill="#c50"/>
      </g>
      <g id="Path_1009" transform="translate(36.056 39.255)">
        <path id="Path_1021" data-name="Path 1021" d="M4545.837-3302.964l-.336-1.428c10.563-2.478,16.463-.588,16.695-.525l-.462,1.386C4561.691-3303.552,4555.937-3305.358,4545.837-3302.964Z" transform="translate(-4545.5 3305.666)" fill="#c50"/>
      </g>
      <g id="Path_1011" transform="translate(36.056 43.554)">
        <path id="Path_1022" data-name="Path 1022" d="M4545.837-3282.486l-.336-1.428c10.563-2.478,16.463-.609,16.695-.525l-.462,1.386.23-.693-.23.693C4561.691-3283.053,4555.937-3284.859,4545.837-3282.486Z" transform="translate(-4545.5 3285.194)" fill="#c50"/>
      </g>
      <g id="Path_1002" transform="translate(0.504 42.083)">
        <path id="Path_1023" data-name="Path 1023" d="M4376.851-3288.483h-.651l.021-1.47c10.563.084,15.791-2.205,15.833-2.247l.609,1.344C4392.453-3290.751,4387.309-3288.483,4376.851-3288.483Z" transform="translate(-4376.2 3292.2)" fill="#c50"/>
      </g>
      <g id="Path_1003" transform="translate(0.504 44.182)">
        <path id="Path_1024" data-name="Path 1024" d="M4376.851-3278.483h-.651l.021-1.47c10.563.084,15.791-2.2,15.833-2.247l.609,1.344C4392.453-3280.751,4387.309-3278.483,4376.851-3278.483Z" transform="translate(-4376.2 3282.2)" fill="#c50"/>
      </g>
      <g id="Path_1004" transform="translate(0.504 46.492)">
        <path id="Path_1025" data-name="Path 1025" d="M4376.851-3267.483h-.651l.021-1.47c10.563.084,15.791-2.2,15.833-2.247l.609,1.344C4392.453-3269.772,4387.309-3267.483,4376.851-3267.483Z" transform="translate(-4376.2 3271.2)" fill="#c50"/>
      </g>
      <g id="Path_1007" transform="translate(36.056 32.682)">
        <path id="Path_1026" data-name="Path 1026" d="M4545.837-3334.264l-.336-1.428c10.563-2.478,16.463-.588,16.695-.525l-.462,1.386C4561.691-3334.831,4555.937-3336.637,4545.837-3334.264Z" transform="translate(-4545.5 3336.966)" fill="#c50"/>
      </g>
      <g id="Path_1008" transform="translate(36.056 37.044)">
        <path id="Path_1027" data-name="Path 1027" d="M4545.837-3313.486l-.336-1.428c10.563-2.478,16.463-.609,16.695-.525l-.462,1.386.23-.693-.23.693C4561.691-3314.053,4555.937-3315.859,4545.837-3313.486Z" transform="translate(-4545.5 3316.194)" fill="#c50"/>
      </g>
      <g id="Path_1010" transform="translate(36.056 41.454)">
        <path id="Path_1028" data-name="Path 1028" d="M4545.837-3292.486l-.336-1.428c10.563-2.478,16.463-.609,16.695-.525l-.462,1.386.23-.693-.23.693C4561.691-3293.053,4555.937-3294.859,4545.837-3292.486Z" transform="translate(-4545.5 3295.194)" fill="#c50"/>
      </g>
      <g id="Path_1012" transform="translate(36.056 45.87)">
        <path id="Path_1029" data-name="Path 1029" d="M4545.837-3271.464l-.336-1.428c10.563-2.478,16.463-.588,16.695-.525l-.462,1.386.23-.692-.23.692C4561.691-3272.032,4555.937-3273.837,4545.837-3271.464Z" transform="translate(-4545.5 3274.166)" fill="#c50"/>
      </g>
      <g id="Path_1013" transform="translate(36.056 48.195)">
        <path id="Path_1030" data-name="Path 1030" d="M4545.837-3260.386l-.336-1.428c10.563-2.478,16.463-.609,16.695-.525l-.462,1.385.23-.693-.23.693C4561.691-3260.953,4555.937-3262.759,4545.837-3260.386Z" transform="translate(-4545.5 3263.094)" fill="#c50"/>
      </g>
      <g id="Path_1014" transform="translate(36.266 49.558)">
        <rect id="Rectangle_1225" data-name="Rectangle 1225" width="16.169" height="0.63" fill="#c50"/>
      </g>
    </g>
  </g>
</svg>
